<svg width="274.1287841796875px" height="122.021240234375px" xmlns="http://www.w3.org/2000/svg" viewBox="112.93560791015625 13.9893798828125 274.1287841796875 122.021240234375" style="background: rgba(0, 0, 0, 0);" preserveAspectRatio="xMidYMid"><defs><filter id="editing-extrusion" x="-100%" y="-100%" width="300%" height="300%"><feFlood result="color1" flood-color="#444"></feFlood><feConvolveMatrix order="8,8" divisor="1" kernelMatrix="1 0 0 0 0 0 0 0 0 1 0 0 0 0 0 0 0 0 1 0 0 0 0 0 0 0 0 1 0 0 0 0 0 0 0 0 1 0 0 0 0 0 0 0 0 1 0 0 0 0 0 0 0 0 1 0 0 0 0 0 0 0 0 1" in="SourceAlpha" result="extrude"></feConvolveMatrix><feComposite in="color1" in2="extrude" result="comp-extrude" operator="in"></feComposite><feOffset dx="4" dy="4" in="comp-extrude" result="offset-extrude"></feOffset><feMerge><feMergeNode in="offset-extrude"></feMergeNode><feMergeNode in="SourceGraphic"></feMergeNode></feMerge></filter></defs><g filter="url(#editing-extrusion)"><g transform="translate(159.00218534469604, 98.67218780517578)"><path d="M20.22-22.46L20.22-22.46L20.22-22.46Q21.12-24.83 21.12-26.88L21.12-26.88L21.12-26.88Q21.12-30.66 18.05-30.66L18.05-30.66L18.05-30.66Q16.45-30.66 15.14-29.22L15.14-29.22L15.14-29.22Q13.82-27.78 13.82-25.98L13.82-25.98L13.82-25.98Q13.82-24.70 14.85-23.68L14.85-23.68L14.85-23.68Q16.32-22.27 20.10-19.97L20.10-19.97L20.10-19.97Q23.87-17.66 25.31-15.78L25.31-15.78L25.31-15.78Q26.75-13.89 26.75-11.30L26.75-11.30L26.75-11.30Q26.75-8.70 25.50-6.34L25.50-6.34L25.50-6.34Q24.26-3.97 22.02-2.30L22.02-2.30L22.02-2.30Q17.22 1.28 9.54 1.28L9.54 1.28L9.54 1.28Q5.38 1.28 2.18-0.90L2.18-0.90L2.18-0.90Q-1.02-3.01-1.02-5.50L-1.02-5.50L-1.02-5.50Q-1.02-8 0.80-9.47L0.80-9.47L0.80-9.47Q2.62-10.94 5.31-10.94L5.31-10.94L5.31-10.94Q8-10.94 9.66-9.92L9.66-9.92L9.66-9.92Q8.83-7.81 8.83-6.40L8.83-6.40L8.83-6.40Q8.83-2.18 12.42-2.18L12.42-2.18L12.42-2.18Q13.95-2.18 14.98-3.14L14.98-3.14L14.98-3.14Q16-4.10 16-5.76L16-5.76L16-5.76Q16-9.02 10.50-12.48L10.50-12.48L10.50-12.48Q6.02-15.42 4.99-16.58L4.99-16.58L4.99-16.58Q3.26-18.62 3.26-21.18L3.26-21.18L3.26-21.18Q3.26-23.74 4.48-26.18L4.48-26.18L4.48-26.18Q5.70-28.61 7.94-30.34L7.94-30.34L7.94-30.34Q12.61-33.92 20.74-33.92L20.74-33.92L20.74-33.92Q24.90-33.92 27.36-32.26L27.36-32.26L27.36-32.26Q29.82-30.59 29.82-27.78L29.82-27.78L29.82-27.78Q29.82-24.96 28.13-23.36L28.13-23.36L28.13-23.36Q26.43-21.76 23.36-21.76L23.36-21.76L23.36-21.76Q21.25-21.76 20.22-22.46ZM34.98-1.92L34.98-1.92L34.98-1.92Q33.47-3.58 32.80-6.21L32.80-6.21L32.80-6.21Q32.13-8.83 32.13-13.12L32.13-13.12L32.13-13.12Q32.13-17.41 33.60-21.31L33.60-21.31L33.60-21.31Q35.07-25.22 37.76-28.03L37.76-28.03L37.76-28.03Q43.26-33.92 52.35-33.92L52.35-33.92L52.35-33.92Q55.62-33.92 57.98-32.83L57.98-32.83L68.93-33.92L64.19-8.96L64.19-8.96Q64-8.19 64-6.78L64-6.78L64-6.78Q64-5.38 64.86-4.48L64.86-4.48L64.86-4.48Q65.73-3.58 67.01-3.46L67.01-3.46L67.01-3.46Q66.37-1.28 64.03 0L64.03 0L64.03 0Q61.70 1.28 59.07 1.28L59.07 1.28L59.07 1.28Q56.45 1.28 54.69 0.29L54.69 0.29L54.69 0.29Q52.93-0.70 52.42-2.37L52.42-2.37L52.42-2.37Q51.39-0.77 49.22 0.26L49.22 0.26L49.22 0.26Q47.04 1.28 44.13 1.28L44.13 1.28L44.13 1.28Q41.22 1.28 38.85 0.51L38.85 0.51L38.85 0.51Q36.48-0.26 34.98-1.92ZM48.48-27.90L48.48-27.90L48.48-27.90Q47.74-26.75 47.10-24.80L47.10-24.80L47.10-24.80Q46.46-22.85 45.41-17.63L45.41-17.63L45.41-17.63Q44.35-12.42 44.35-8.70L44.35-8.70L44.35-8.70Q44.35-4.99 44.93-3.90L44.93-3.90L44.93-3.90Q45.50-2.82 46.53-2.82L46.53-2.82L46.53-2.82Q48.58-2.82 50.08-4.77L50.08-4.77L50.08-4.77Q51.58-6.72 52.16-10.18L52.16-10.18L55.55-28.93L55.55-28.93Q54.21-30.08 52.64-30.08L52.64-30.08L52.64-30.08Q51.07-30.08 50.14-29.57L50.14-29.57L50.14-29.57Q49.22-29.06 48.48-27.90ZM92.42-17.98L92.42-17.98L92.42-17.98Q94.72-22.08 94.72-26.24L94.72-26.24L94.72-26.24Q94.72-28.99 92.74-28.99L92.74-28.99L92.74-28.99Q91.20-28.99 89.60-26.37L89.60-26.37L89.60-26.37Q87.94-23.74 87.42-20.35L87.42-20.35L84.10 0L70.85 1.28L77.38-32.64L87.94-33.92L86.78-27.46L86.78-27.46Q89.92-33.92 96.96-33.92L96.96-33.92L96.96-33.92Q100.67-33.92 102.69-32L102.69-32L102.69-32Q104.70-30.08 104.70-26.14L104.70-26.14L104.70-26.14Q104.70-22.21 102.11-19.71L102.11-19.71L102.11-19.71Q99.52-17.22 95.10-17.22L95.10-17.22L95.10-17.22Q93.18-17.22 92.42-17.98ZM108.51-1.92L108.51-1.92L108.51-1.92Q107.01-3.58 106.34-6.21L106.34-6.21L106.34-6.21Q105.66-8.83 105.66-13.12L105.66-13.12L105.66-13.12Q105.66-17.41 107.14-21.31L107.14-21.31L107.14-21.31Q108.61-25.22 111.30-28.03L111.30-28.03L111.30-28.03Q116.80-33.92 125.89-33.92L125.89-33.92L125.89-33.92Q129.15-33.92 131.52-32.83L131.52-32.83L142.46-33.92L137.73-8.96L137.73-8.96Q137.54-8.19 137.54-6.78L137.54-6.78L137.54-6.78Q137.54-5.38 138.40-4.48L138.40-4.48L138.40-4.48Q139.26-3.58 140.54-3.46L140.54-3.46L140.54-3.46Q139.90-1.28 137.57 0L137.57 0L137.57 0Q135.23 1.28 132.61 1.28L132.61 1.28L132.61 1.28Q129.98 1.28 128.22 0.29L128.22 0.29L128.22 0.29Q126.46-0.70 125.95-2.37L125.95-2.37L125.95-2.37Q124.93-0.77 122.75 0.26L122.75 0.26L122.75 0.26Q120.58 1.28 117.66 1.28L117.66 1.28L117.66 1.28Q114.75 1.28 112.38 0.51L112.38 0.51L112.38 0.51Q110.02-0.26 108.51-1.92ZM122.02-27.90L122.02-27.90L122.02-27.90Q121.28-26.75 120.64-24.80L120.64-24.80L120.64-24.80Q120.00-22.85 118.94-17.63L118.94-17.63L118.94-17.63Q117.89-12.42 117.89-8.70L117.89-8.70L117.89-8.70Q117.89-4.99 118.46-3.90L118.46-3.90L118.46-3.90Q119.04-2.82 120.06-2.82L120.06-2.82L120.06-2.82Q122.11-2.82 123.62-4.77L123.62-4.77L123.62-4.77Q125.12-6.72 125.70-10.18L125.70-10.18L129.09-28.93L129.09-28.93Q127.74-30.08 126.18-30.08L126.18-30.08L126.18-30.08Q124.61-30.08 123.68-29.57L123.68-29.57L123.68-29.57Q122.75-29.06 122.02-27.90ZM178.11-7.10L178.11-7.10L178.11-7.10Q178.11-4.29 180.99-3.46L180.99-3.46L180.99-3.46Q180.29-1.09 177.54 0.19L177.54 0.19L177.54 0.19Q175.23 1.28 172.70 1.28L172.70 1.28L172.70 1.28Q170.18 1.28 168.86 0.61L168.86 0.61L168.86 0.61Q167.55-0.06 166.85-1.15L166.85-1.15L166.85-1.15Q165.70-2.82 165.70-5.95L165.70-5.95L165.70-5.95Q165.70-7.81 166.72-12.93L166.72-12.93L167.62-17.79L167.62-17.79Q168.70-23.36 168.70-25.41L168.70-25.41L168.70-25.41Q168.70-28.99 166.72-28.99L166.72-28.99L166.72-28.99Q164.22-28.99 162.62-25.34L162.62-25.34L162.62-25.34Q161.98-23.94 161.54-21.82L161.54-21.82L157.18 0L144.32 1.28L153.34-44.80L166.21-46.08L165.70-43.52L165.70-43.52Q163.90-33.66 162.37-30.34L162.37-30.34L162.37-30.34Q165.95-33.92 172.54-33.92L172.54-33.92L172.54-33.92Q179.52-33.92 180.80-29.31L180.80-29.31L180.80-29.31Q181.25-27.84 181.25-26.56L181.25-26.56L181.25-26.56Q181.25-25.28 181.15-24.29L181.15-24.29L181.15-24.29Q181.06-23.30 180.74-21.50L180.74-21.50L179.90-16.90L178.43-9.66L178.43-9.66Q178.11-8.19 178.11-7.10Z" fill="#ccc"></path></g></g><style>text {
  font-size: 64px;
  font-family: Arial Black;
  dominant-baseline: central;
  text-anchor: middle;
}</style></svg>